# xmcd CD database file
#
# Track frame offsets:
#	150
#	21747
#	45207
#	76410
#	97498
#	121227
#	143429
#	167411
#	181767
#	207989
#
# Disc length: 2964 seconds
#
# Revision: 0
# Processed by: cddbd v1.5.2PL0 Copyright (c) Steve Scherf et al.
# Submitted via: CDex 1.51
#
DISCID=7e0b920a
DTITLE=Erik Truffaz - Best Of - CD3
DYEAR=2011
DGENRE=Jazz
TTITLE0=Feat.Nya_Yuri's Choice
TTITLE1=Feat.Nya_Sweet Mercy
TTITLE2=Feat.Nya_Siegfried
TTITLE3=Feat.Nya_Trippin' The Lovelight Fantastic
TTITLE4=Feat.Ed Harcourt_Anonymus
TTITLE5=Feat.Ed Harcourt_Red Cloud
TTITLE6=Feat.Ed Harcourt_Snake Charmers Man
TTITLE7=Feat.Ed Harcourt_Nobody Put The Baby In The Corner
TTITLE8=Feat.Christophe_L'Un Dans l'Autre
TTITLE9=Feat.Sophie Hunger_Let Me Go !
EXTD=YEAR: 2011
EXTT0=
EXTT1=
EXTT2=
EXTT3=
EXTT4=
EXTT5=
EXTT6=
EXTT7=
EXTT8=
EXTT9=
PLAYORDER=
